<svg xmlns="http://www.w3.org/2000/svg" width="1200" height="630" viewBox="0 0 1200 630">
  <defs>
    <linearGradient id="bg" x1="0" y1="0" x2="1" y2="1">
      <stop offset="0%" stop-color="#0a0f1a"/>
      <stop offset="100%" stop-color="#0d1520"/>
    </linearGradient>
  </defs>

  <rect width="1200" height="630" fill="url(#bg)"/>

  <!-- Grid -->
  <g stroke="#4a9eff" stroke-opacity="0.04" stroke-width="1">
    <line x1="0" y1="105" x2="1200" y2="105"/>
    <line x1="0" y1="210" x2="1200" y2="210"/>
    <line x1="0" y1="315" x2="1200" y2="315"/>
    <line x1="0" y1="420" x2="1200" y2="420"/>
    <line x1="0" y1="525" x2="1200" y2="525"/>
    <line x1="200" y1="0" x2="200" y2="630"/>
    <line x1="400" y1="0" x2="400" y2="630"/>
    <line x1="600" y1="0" x2="600" y2="630"/>
    <line x1="800" y1="0" x2="800" y2="630"/>
    <line x1="1000" y1="0" x2="1000" y2="630"/>
  </g>

  <!-- Glow -->
  <ellipse cx="900" cy="200" rx="300" ry="300" fill="#4a9eff" fill-opacity="0.05"/>

  <!-- Accent -->
  <rect x="80" y="80" width="60" height="3" fill="#4a9eff"/>

  <!-- Tag -->
  <text x="80" y="140" font-family="monospace" font-size="16" fill="#4a9eff" letter-spacing="4" opacity="0.8">// MONITORAMENTO DE OBJETOS PRÓXIMOS À TERRA</text>

  <!-- Title -->
  <text x="80" y="270" font-family="sans-serif" font-size="110" font-weight="700" fill="#e8f0fe" letter-spacing="-2">Astraea</text>

  <!-- Data rows -->
  <rect x="80" y="310" width="700" height="1" fill="#1a2535"/>
  <text x="80" y="345" font-family="monospace" font-size="16" fill="#8899aa">ASTEROID   (2026 FL5)   38.99 LD</text>
  <text x="700" y="345" font-family="monospace" font-size="16" fill="#00ff88">BAIXO</text>
  <rect x="80" y="360" width="700" height="1" fill="#1a2535"/>
  <text x="80" y="395" font-family="monospace" font-size="16" fill="#8899aa">CME        DONKI        462 km/s</text>
  <text x="700" y="395" font-family="monospace" font-size="16" fill="#f59e0b">ATIVO</text>
  <rect x="80" y="410" width="700" height="1" fill="#1a2535"/>

  <!-- Stack -->
  <text x="80" y="470" font-family="monospace" font-size="18" fill="#4a9eff" opacity="0.7">NASA APIs · dbt Core · Random Forest · FastAPI · PostgreSQL</text>

  <!-- Domain -->
  <text x="80" y="540" font-family="monospace" font-size="16" fill="#4a9eff" opacity="0.5" letter-spacing="2">alexarnoni.com/astraea</text>
</svg>
