<svg xmlns="http://www.w3.org/2000/svg" width="1200" height="630" viewBox="0 0 1200 630">
  <defs>
    <linearGradient id="bg" x1="0" y1="0" x2="1" y2="1">
      <stop offset="0%" stop-color="#0d1117"/>
      <stop offset="100%" stop-color="#161b22"/>
    </linearGradient>
  </defs>

  <rect width="1200" height="630" fill="url(#bg)"/>

  <!-- Grid -->
  <g stroke="#1f6feb" stroke-opacity="0.06" stroke-width="1">
    <line x1="0" y1="105" x2="1200" y2="105"/>
    <line x1="0" y1="210" x2="1200" y2="210"/>
    <line x1="0" y1="315" x2="1200" y2="315"/>
    <line x1="0" y1="420" x2="1200" y2="420"/>
    <line x1="0" y1="525" x2="1200" y2="525"/>
    <line x1="200" y1="0" x2="200" y2="630"/>
    <line x1="400" y1="0" x2="400" y2="630"/>
    <line x1="600" y1="0" x2="600" y2="630"/>
    <line x1="800" y1="0" x2="800" y2="630"/>
    <line x1="1000" y1="0" x2="1000" y2="630"/>
  </g>

  <!-- Glow -->
  <ellipse cx="1000" cy="300" rx="300" ry="300" fill="#1f6feb" fill-opacity="0.06"/>

  <!-- Accent -->
  <rect x="80" y="80" width="60" height="3" fill="#1f6feb"/>

  <!-- Tag -->
  <text x="80" y="140" font-family="monospace" font-size="16" fill="#1f6feb" letter-spacing="3" opacity="0.9">GESTÃO FINANCEIRA PESSOAL</text>

  <!-- Title -->
  <text x="80" y="270" font-family="sans-serif" font-size="110" font-weight="700" fill="#f0f6fc" letter-spacing="-2">Luro</text>

  <!-- Subtitle -->
  <text x="80" y="340" font-family="sans-serif" font-size="28" font-weight="400" fill="#8b949e">Seu organizador financeiro inteligente</text>

  <!-- Features -->
  <text x="80" y="420" font-family="monospace" font-size="18" fill="#8b949e">Registro de Gastos  ·  Metas Mensais  ·  IA &amp; Insights</text>

  <!-- Domain -->
  <text x="80" y="540" font-family="monospace" font-size="16" fill="#1f6feb" opacity="0.5" letter-spacing="2">alexarnoni.com/finance</text>
</svg>
