<svg xmlns="http://www.w3.org/2000/svg" width="1200" height="630" viewBox="0 0 1200 630">
  <defs>
    <linearGradient id="bg" x1="0" y1="0" x2="1" y2="1">
      <stop offset="0%" stop-color="#0b0c0e"/>
      <stop offset="100%" stop-color="#0f1114"/>
    </linearGradient>
  </defs>

  <rect width="1200" height="630" fill="url(#bg)"/>

  <!-- Grid -->
  <g stroke="#ea580c" stroke-opacity="0.04" stroke-width="1">
    <line x1="0" y1="105" x2="1200" y2="105"/>
    <line x1="0" y1="210" x2="1200" y2="210"/>
    <line x1="0" y1="315" x2="1200" y2="315"/>
    <line x1="0" y1="420" x2="1200" y2="420"/>
    <line x1="0" y1="525" x2="1200" y2="525"/>
    <line x1="200" y1="0" x2="200" y2="630"/>
    <line x1="400" y1="0" x2="400" y2="630"/>
    <line x1="600" y1="0" x2="600" y2="630"/>
    <line x1="800" y1="0" x2="800" y2="630"/>
    <line x1="1000" y1="0" x2="1000" y2="630"/>
  </g>

  <!-- Glow -->
  <ellipse cx="200" cy="400" rx="350" ry="250" fill="#ea580c" fill-opacity="0.05"/>

  <!-- Accent -->
  <rect x="80" y="80" width="60" height="4" fill="#ea580c"/>

  <!-- Tag -->
  <text x="80" y="140" font-family="monospace" font-size="16" fill="#ea580c" letter-spacing="4" opacity="0.9">// BRASILEIRÃO SÉRIE A · SCOUTING &amp; ANÁLISE</text>

  <!-- Title -->
  <text x="80" y="280" font-family="sans-serif" font-size="120" font-weight="800" fill="#f5f0ea" letter-spacing="-3">Olheiro</text>

  <!-- Stats -->
  <text x="80" y="360" font-family="monospace" font-size="18" fill="#6b7585">20 TIMES  ·  500+ JOGADORES  ·  GARIMPO ATIVO</text>

  <!-- Subtitle -->
  <text x="80" y="430" font-family="sans-serif" font-size="24" font-weight="500" fill="#c8c0b8">Rankings · Radar Charts · Talentos Subvalorizados</text>

  <!-- Domain -->
  <text x="80" y="540" font-family="monospace" font-size="16" fill="#ea580c" opacity="0.5" letter-spacing="2">alexarnoni.com/olheiro</text>
</svg>
